<?xml version="1.0" encoding="utf-8"?>
<!-- Generator: Adobe Illustrator 16.0.3, SVG Export Plug-In . SVG Version: 6.00 Build 0)  -->
<!DOCTYPE svg PUBLIC "-//W3C//DTD SVG 1.1//EN" "http://www.w3.org/Graphics/SVG/1.1/DTD/svg11.dtd">
<svg version="1.1" id="Ebene_1" xmlns="http://www.w3.org/2000/svg" xmlns:xlink="http://www.w3.org/1999/xlink" viewBox="0 0 342.148 70.229" enable-background="new 0 0 342.148 70.229"
	 xml:space="preserve">
<g>
	<g>
		<path fill="#1D1E1C" d="M91.497,49.057c-1.709,0.949-3.65,1.393-5.592,1.393c-4.643,0-7.977-3.165-7.977-7.851
			c0-4.706,3.566-7.85,8.04-7.85c1.962,0,3.861,0.527,5.275,1.962l-1.329,1.393c-1.013-1.097-2.554-1.709-4.073-1.709
			c-3.419,0-6.015,2.574-6.015,6.204c0,3.566,2.512,6.204,6.184,6.204c1.203,0,2.617-0.316,3.714-0.865v-4.579h-3.439v-1.646h5.212
			V49.057z"/>
		<path fill="#1D1E1C" d="M94.788,35.129h1.772v13.294h6.837v1.646h-8.609V35.129z"/>
		<path fill="#1D1E1C" d="M103.629,42.599c0-4.516,3.271-7.85,7.808-7.85s7.809,3.334,7.809,7.85c0,4.517-3.271,7.851-7.809,7.851
			S103.629,47.115,103.629,42.599z M117.346,42.599c0-3.439-2.406-6.204-5.909-6.204s-5.909,2.765-5.909,6.204
			c0,3.44,2.406,6.204,5.909,6.204S117.346,46.039,117.346,42.599z"/>
		<path fill="#1D1E1C" d="M121.669,35.129h4.558c2.47,0,4.959,0.928,4.959,3.672c0,1.73-1.013,2.891-2.616,3.376v0.042
			c1.92,0.169,3.376,1.71,3.376,3.672c0,3.292-3.06,4.179-5.824,4.179h-4.452V35.129z M123.441,41.459h2.448
			c1.667,0,3.397-0.358,3.397-2.427c0-1.836-1.604-2.258-3.208-2.258h-2.638V41.459z M123.441,48.423h2.996
			c1.73,0,3.609-0.696,3.609-2.595c0-2.09-1.773-2.723-3.566-2.723h-3.039V48.423z"/>
		<path fill="#1D1E1C" d="M139.71,35.129h1.667l6.352,14.94h-2.067l-1.52-3.672h-7.471l-1.54,3.672h-2.005L139.71,35.129z
			 M140.512,37.407h-0.042l-3.103,7.344h6.099L140.512,37.407z"/>
		<path fill="#1D1E1C" d="M149.605,35.129h1.772v13.294h6.837v1.646h-8.609V35.129z"/>
		<path fill="#1D1E1C" d="M174.571,37.767c-0.591-0.95-1.646-1.372-2.722-1.372c-1.562,0-3.187,0.738-3.187,2.512
			c0,1.371,0.76,1.983,3.145,2.743c2.321,0.738,4.474,1.498,4.474,4.432c0,2.976-2.554,4.368-5.255,4.368
			c-1.73,0-3.588-0.569-4.601-2.068l1.52-1.245c0.633,1.098,1.899,1.667,3.187,1.667c1.52,0,3.25-0.886,3.25-2.596
			c0-1.836-1.245-2.152-3.904-3.038c-2.11-0.696-3.714-1.625-3.714-4.115c0-2.87,2.469-4.305,5.086-4.305
			c1.667,0,3.081,0.464,4.178,1.751L174.571,37.767z"/>
		<path fill="#1D1E1C" d="M184.038,35.129h1.667l6.352,14.94h-2.067l-1.52-3.672h-7.471l-1.54,3.672h-2.005L184.038,35.129z
			 M184.84,37.407h-0.042l-3.103,7.344h6.099L184.84,37.407z"/>
		<path fill="#1D1E1C" d="M194.067,35.129h9.264v1.646h-7.491v4.938h6.964v1.646h-6.964v6.711h-1.772V35.129z"/>
		<path fill="#1D1E1C" d="M205.807,35.129h9.391v1.646h-7.618v4.685h7.111v1.646h-7.111v5.317h7.998v1.646h-9.771V35.129z"/>
		<path fill="#1D1E1C" d="M228.954,36.774h-4.938v13.295h-1.772V36.774h-4.938v-1.646h11.648V36.774z"/>
		<path fill="#1D1E1C" d="M235.839,43.633l-5.57-8.504h2.258l4.199,6.753l4.326-6.753h2.131l-5.57,8.504v6.437h-1.773V43.633z"/>
		<path fill="#1D1E1C" d="M262.337,36.774h-4.938v13.295h-1.772V36.774h-4.938v-1.646h11.648V36.774z"/>
		<path fill="#1D1E1C" d="M264.522,35.129h9.391v1.646h-7.618v4.685h7.111v1.646h-7.111v5.317h7.998v1.646h-9.771V35.129z"/>
		<path fill="#1D1E1C" d="M281.129,42.198l-5.022-7.069h2.279l4.031,5.845l3.988-5.845h2.216l-5.022,7.069l5.508,7.871h-2.343
			l-4.432-6.626l-4.452,6.626h-2.195L281.129,42.198z"/>
		<path fill="#1D1E1C" d="M301.879,36.774h-4.938v13.295h-1.772V36.774h-4.938v-1.646h11.648V36.774z"/>
		<path fill="#1D1E1C" d="M304.448,35.129h1.772v14.94h-1.772V35.129z"/>
		<path fill="#1D1E1C" d="M309.935,35.129h1.772v13.294h6.837v1.646h-8.609V35.129z"/>
		<path fill="#1D1E1C" d="M320.78,35.129h9.391v1.646h-7.618v4.685h7.111v1.646h-7.111v5.317h7.998v1.646h-9.771V35.129z"/>
		<path fill="#1D1E1C" d="M340.438,37.767c-0.591-0.95-1.646-1.372-2.722-1.372c-1.562,0-3.187,0.738-3.187,2.512
			c0,1.371,0.76,1.983,3.145,2.743c2.321,0.738,4.474,1.498,4.474,4.432c0,2.976-2.554,4.368-5.255,4.368
			c-1.73,0-3.588-0.569-4.601-2.068l1.52-1.245c0.633,1.098,1.899,1.667,3.187,1.667c1.52,0,3.25-0.886,3.25-2.596
			c0-1.836-1.245-2.152-3.904-3.038c-2.11-0.696-3.714-1.625-3.714-4.115c0-2.87,2.469-4.305,5.086-4.305
			c1.667,0,3.081,0.464,4.178,1.751L340.438,37.767z"/>
	</g>
	<g>
		<path fill="#1D1E1C" d="M35.116,13.169L35.116,13.169v-2.195l0,0c-13.333,0-24.142,10.812-24.142,24.146h2.194
			C13.169,22.997,22.997,13.169,35.116,13.169z"/>
		<path fill="#1D1E1C" d="M33.931,0v4.42C17.906,5.028,5.029,17.906,4.42,33.936H0v1.185h4.39h1.039H8.78
			c0-14.548,11.793-26.341,26.336-26.341V5.427V4.391V0H33.931z"/>
	</g>
	<path fill="#0354A1" d="M70.235,35.12h-4.391h-0.677h-8.103c0,12.114-9.826,21.941-21.949,21.941v8.779
		c16.572,0,30.075-13.124,30.698-29.536h4.421V35.12z"/>
	<path fill="#878686" d="M52.675,27.985c0,2.729-2.208,4.938-4.934,4.938c-2.729,0-4.942-2.209-4.942-4.938
		c0-2.728,2.214-4.943,4.942-4.943C50.467,23.042,52.675,25.258,52.675,27.985z"/>
	<g>
		<path fill="#C5C4C4" d="M15.365,35.12h-2.196c0,11.717,9.195,21.293,20.762,21.908v13.201h1.186V57.062v-0.718v-1.479
			C24.21,54.865,15.365,46.022,15.365,35.12z"/>
		<path fill="#C5C4C4" d="M42.799,35.12c0,6.667-5.406,12.062-12.069,12.062c-3.875,0-7.322-1.821-9.531-4.654h-2.003
			c2.794,5.987,8.872,10.144,15.92,10.144c9.697,0,17.56-7.858,17.56-17.551H42.799z"/>
	</g>
</g>
</svg>
